<svg width="18" height="18" viewBox="0 0 18 18" fill="none" xmlns="http://www.w3.org/2000/svg">
<g clip-path="url(#clip0_225_1170)">
<rect x="2.25" y="3.75" width="13.5" height="10.5" fill="black"/>
<path fill-rule="evenodd" clip-rule="evenodd" d="M0.75 3.75C0.75 2.09315 2.09315 0.75 3.75 0.75H14.25C15.9069 0.75 17.25 2.09315 17.25 3.75V14.25C17.25 15.9069 15.9069 17.25 14.25 17.25H3.75C2.09315 17.25 0.75 15.9069 0.75 14.25V3.75ZM3.75 2.25H14.25C15.0784 2.25 15.75 2.92157 15.75 3.75V14.25C15.75 15.0784 15.0784 15.75 14.25 15.75H3.75C2.92157 15.75 2.25 15.0784 2.25 14.25V3.75C2.25 2.92157 2.92157 2.25 3.75 2.25Z" fill="#FFE123"/>
<path d="M7.5985 12.9015C7.45205 13.0479 7.21462 13.0479 7.06817 12.9015L3.4309 9.26423C3.28482 9.11815 3.2844 8.88143 3.42996 8.73484L4.0765 8.08371C4.2228 7.93638 4.46096 7.93596 4.60777 8.08277L7.06817 10.5432C7.21462 10.6896 7.45205 10.6896 7.5985 10.5432L13.3922 4.74944C13.539 4.60262 13.7772 4.60304 13.9235 4.75038L14.57 5.4015C14.7156 5.5481 14.7152 5.78482 14.5691 5.9309L7.5985 12.9015ZM14.8333 1.5H3.16667C2.24167 1.5 1.5 2.24167 1.5 3.16667V14.8333C1.5 15.2754 1.67559 15.6993 1.98816 16.0118C2.30072 16.3244 2.72464 16.5 3.16667 16.5H14.8333C15.2754 16.5 15.6993 16.3244 16.0118 16.0118C16.3244 15.6993 16.5 15.2754 16.5 14.8333V3.16667C16.5 2.24167 15.75 1.5 14.8333 1.5Z" fill="#FFE123"/>
</g>
<defs>
<clipPath id="clip0_225_1170">
<rect width="18" height="18" fill="white"/>
</clipPath>
</defs>
</svg>
